# xmcd
#
# Track frame offsets:
#	150
#	14201
#	27227
#	40271
#	53637
#	70214
#	82045
#	93645
#	105763
#	119342
#	131686
#	147147
#	160785
#	173535
#	187886
#	202899
#	220763
#	231093
#
# Disc length: 3250 seconds
#
# Revision: 1
# Processed by: cddbd v1.5.2PL0 Copyright (c) Steve Scherf et al.
# Submitted via: audiograbber 1.83.01
#
DISCID=ed0cb012
DTITLE=Various Artist - Essential Country
DYEAR=2002
DGENRE=Country
TTITLE0=Glen Campbell - Wichita Lineman
TTITLE1=Billie Jo Spears - '57 Chevrolet
TTITLE2=Dr Hook - Sharing The Night Together
TTITLE3=Crystal Gayle - Why Have You Left The One You Left Me For
TTITLE4=Kenny Rogers - Lucille
TTITLE5=Lacy L Dalton - Love Hurts
TTITLE6=Slim Whitman - Happy Anniversary
TTITLE7=Wanda Jackson - Stand By Your Man
TTITLE8=Faron Yound - It's Four In The Morning
TTITLE9=Marie Osmond - Paper Roses
TTITLE10=Hoyt Axton - Della And The Dealer
TTITLE11=Loretta Lynn - Coal Miner's Daughter
TTITLE12=Hank Williams - I'm So Lonesome I Could Cry
TTITLE13=Bill Anderson - Peanuts And Diamonds
TTITLE14=Lee Greenwood - Dixie Road
TTITLE15=Oak Ridge Boys - It Takes A Little Rain (To Make Love Grow)
TTITLE16=The Statler Brothers - Hello Mary Lou
TTITLE17=Don Williams - You're My Best Friend
EXTD=
EXTT0=
EXTT1=
EXTT2=
EXTT3=
EXTT4=
EXTT5=
EXTT6=
EXTT7=
EXTT8=
EXTT9=
EXTT10=
EXTT11=
EXTT12=
EXTT13=
EXTT14=
EXTT15=
EXTT16=
EXTT17=
PLAYORDER=
